<svg width="96" height="75" viewBox="0 0 96 75" fill="none" xmlns="http://www.w3.org/2000/svg">
<g id="LOGOS">
<path id="LOGO" fill-rule="evenodd" clip-rule="evenodd" d="M48 0L45.415 4.06823L24.842 36.4454L4.67197 31.655L0 30.5455L0.941737 35.2541L7.71466 69.1187L8.72727 74.1818L12.4649 70.6194L31.6185 52.3636H33.039L30.5455 56.7273L44.9144 71.0963L48 74.1818L51.0856 71.0963L65.4545 56.7273L62.961 52.3636H64.3823L83.5352 70.6193L87.2727 74.1818L88.2854 69.1187L95.0585 35.2527L96 30.5455L91.3287 31.6517L71.1487 36.4307L50.585 4.06823L48 0ZM66.6548 37.4949L48 8.13646L29.3341 37.5123L38.5733 39.7066L40.0686 40.0618L45.4871 30.5794L48 26.1818L50.5129 30.5794L55.9176 40.0376L57.4055 39.6853L66.6548 37.4949ZM22.3658 40.3424L5.61371 36.3637L11.4522 65.5564L25.2938 52.3636H19.8973H14.7273L17.5 48L22.3658 40.3424ZM29.872 48H22.67L26.8579 41.4092L34.8063 43.297L29.872 48ZM38.0648 52.3636H38.071L39.4452 49.9479L48 34.977L56.9816 50.6947L57.9311 52.3636H57.9352L60.0123 55.9985L48 68.0107L35.9878 55.9985L38.0648 52.3636ZM66.1288 48L61.1739 43.2772L69.1316 41.3927L73.33 48H66.1288ZM70.7069 52.3636H76.1027H81.2727L78.5 48L73.6254 40.3285L90.3872 36.359L84.5478 65.5562L70.7069 52.3636Z" fill="#9747FF"/>
</g>
</svg>
