<svg width="96" height="96" viewBox="0 0 96 96" fill="none" xmlns="http://www.w3.org/2000/svg">
<g id="IoLogoJavascript">
<path id="Vector" d="M6 6V90H90V6H6ZM51 71.25C51 79.4269 46.17 83.4131 39.1781 83.4131C32.8631 83.4131 29.1975 80.1431 27.3375 76.1963L33.765 72.3056C35.0044 74.505 35.9456 76.365 38.6512 76.365C40.9012 76.365 42.75 75.3506 42.75 71.4038V45H51V71.25ZM69.6281 83.2256C62.2988 83.2256 57.5625 79.9181 55.2506 75.3506L61.6875 71.625C63.375 74.3887 65.5781 76.23 69.4688 76.23C72.7388 76.23 74.6381 74.7825 74.6381 72.5269C74.6381 69.8212 72.6825 68.8631 69.0731 67.2769L67.1006 66.4294C61.4044 64.0069 57.6281 60.9619 57.6281 54.5325C57.6281 48.6131 62.1375 44.2894 69.1856 44.2894C74.205 44.2894 77.8106 45.8494 80.4075 50.4169L74.25 54.375C72.8963 51.9506 71.4375 51 69.1763 51C66.8644 51 65.3981 52.4662 65.3981 54.375C65.3981 56.7431 66.8644 57.7012 70.2469 59.1675L72.2194 60.0131C78.93 62.8894 82.7081 65.8256 82.7081 72.4181C82.71 79.5244 77.1281 83.2256 69.6281 83.2256Z" fill="#F3F32D"/>
</g>
</svg>
